<mxfile host="app.diagrams.net" modified="2023-10-03T00:15:38.149Z" agent="Mozilla/5.0 (Macintosh; Intel Mac OS X 10_15_7) AppleWebKit/605.1.15 (KHTML, like Gecko) Version/17.0 Safari/605.1.15" etag="AfRExEQyn22P1BOHhTMy" version="22.0.0" type="github" pages="2">
  <diagram name="AS-IS" id="gl7itzXOc_nNFnvp_Sqy">
    <mxGraphModel dx="1434" dy="827" grid="1" gridSize="10" guides="1" tooltips="1" connect="1" arrows="1" fold="1" page="1" pageScale="1" pageWidth="850" pageHeight="1100" math="0" shadow="0">
      <root>
        <mxCell id="0" />
        <mxCell id="1" parent="0" />
        <mxCell id="cKOpjiD4mU9q3P8g4Ua1-2" value="VNET01&lt;br&gt;10.0.0.0/16" style="image;aspect=fixed;html=1;points=[];align=center;fontSize=12;image=img/lib/azure2/networking/Virtual_Networks.svg;" parent="1" vertex="1">
          <mxGeometry x="298.5" y="700" width="67" height="40" as="geometry" />
        </mxCell>
        <mxCell id="cKOpjiD4mU9q3P8g4Ua1-24" style="edgeStyle=orthogonalEdgeStyle;rounded=0;orthogonalLoop=1;jettySize=auto;html=1;entryX=0;entryY=0.5;entryDx=0;entryDy=0;" parent="1" source="cKOpjiD4mU9q3P8g4Ua1-9" target="cKOpjiD4mU9q3P8g4Ua1-16" edge="1">
          <mxGeometry relative="1" as="geometry" />
        </mxCell>
        <mxCell id="cKOpjiD4mU9q3P8g4Ua1-25" value="VNET Peering" style="edgeLabel;html=1;align=center;verticalAlign=middle;resizable=0;points=[];" parent="cKOpjiD4mU9q3P8g4Ua1-24" vertex="1" connectable="0">
          <mxGeometry x="0.0152" relative="1" as="geometry">
            <mxPoint as="offset" />
          </mxGeometry>
        </mxCell>
        <mxCell id="cKOpjiD4mU9q3P8g4Ua1-9" value="EAST US" style="swimlane;startSize=0;dashed=1;dashPattern=12 12;verticalAlign=bottom;" parent="1" vertex="1">
          <mxGeometry x="70" y="270" width="315.5" height="440" as="geometry" />
        </mxCell>
        <mxCell id="cKOpjiD4mU9q3P8g4Ua1-10" value="" style="swimlane;startSize=0;fillStyle=solid;fillColor=#76608a;fontColor=#ffffff;strokeColor=#432D57;gradientColor=none;swimlaneFillColor=#808080;rounded=1;glass=1;shadow=0;opacity=60;" parent="cKOpjiD4mU9q3P8g4Ua1-9" vertex="1">
          <mxGeometry x="50" y="90" width="215" height="246" as="geometry" />
        </mxCell>
        <mxCell id="cKOpjiD4mU9q3P8g4Ua1-3" value="" style="image;aspect=fixed;html=1;points=[];align=center;fontSize=12;image=img/lib/azure2/compute/Virtual_Machine.svg;" parent="cKOpjiD4mU9q3P8g4Ua1-10" vertex="1">
          <mxGeometry x="20" y="47" width="69" height="64" as="geometry" />
        </mxCell>
        <mxCell id="cKOpjiD4mU9q3P8g4Ua1-4" value="" style="image;aspect=fixed;html=1;points=[];align=center;fontSize=12;image=img/lib/azure2/compute/Virtual_Machine.svg;" parent="cKOpjiD4mU9q3P8g4Ua1-10" vertex="1">
          <mxGeometry x="20" y="141" width="69" height="64" as="geometry" />
        </mxCell>
        <mxCell id="cKOpjiD4mU9q3P8g4Ua1-11" value="SUB01&lt;br&gt;10.0.0.0/24" style="text;html=1;align=center;verticalAlign=middle;resizable=0;points=[];autosize=1;strokeColor=none;fillColor=none;" parent="cKOpjiD4mU9q3P8g4Ua1-10" vertex="1">
          <mxGeometry x="135" y="205" width="80" height="40" as="geometry" />
        </mxCell>
        <mxCell id="cKOpjiD4mU9q3P8g4Ua1-12" value="VM-PORTAL" style="text;html=1;strokeColor=none;fillColor=#FFFFFF;align=center;verticalAlign=middle;whiteSpace=wrap;rounded=0;" parent="cKOpjiD4mU9q3P8g4Ua1-10" vertex="1">
          <mxGeometry x="114.5" y="60" width="80" height="30" as="geometry" />
        </mxCell>
        <mxCell id="cKOpjiD4mU9q3P8g4Ua1-14" value="VM-DV" style="text;html=1;strokeColor=none;fillColor=#FFFFFF;align=center;verticalAlign=middle;whiteSpace=wrap;rounded=0;" parent="cKOpjiD4mU9q3P8g4Ua1-10" vertex="1">
          <mxGeometry x="114.5" y="150" width="80" height="30" as="geometry" />
        </mxCell>
        <mxCell id="cKOpjiD4mU9q3P8g4Ua1-1" value="NSG01" style="image;aspect=fixed;html=1;points=[];align=center;fontSize=12;image=img/lib/azure2/networking/Network_Security_Groups.svg;verticalAlign=top;direction=east;" parent="cKOpjiD4mU9q3P8g4Ua1-9" vertex="1">
          <mxGeometry x="150" y="60" width="32.94" height="40" as="geometry" />
        </mxCell>
        <mxCell id="cKOpjiD4mU9q3P8g4Ua1-15" value="VNET02&lt;br&gt;10.1.0.0/16" style="image;aspect=fixed;html=1;points=[];align=center;fontSize=12;image=img/lib/azure2/networking/Virtual_Networks.svg;" parent="1" vertex="1">
          <mxGeometry x="778.5" y="700" width="67" height="40" as="geometry" />
        </mxCell>
        <mxCell id="cKOpjiD4mU9q3P8g4Ua1-16" value="CENTRAL US" style="swimlane;startSize=0;dashed=1;dashPattern=12 12;verticalAlign=bottom;" parent="1" vertex="1">
          <mxGeometry x="550" y="270" width="315.5" height="440" as="geometry" />
        </mxCell>
        <mxCell id="cKOpjiD4mU9q3P8g4Ua1-17" value="" style="swimlane;startSize=0;fillStyle=solid;fillColor=#76608a;fontColor=#ffffff;strokeColor=#432D57;gradientColor=none;swimlaneFillColor=#808080;rounded=1;glass=1;shadow=0;opacity=60;" parent="cKOpjiD4mU9q3P8g4Ua1-16" vertex="1">
          <mxGeometry x="50" y="90" width="215" height="246" as="geometry" />
        </mxCell>
        <mxCell id="cKOpjiD4mU9q3P8g4Ua1-18" value="" style="image;aspect=fixed;html=1;points=[];align=center;fontSize=12;image=img/lib/azure2/compute/Virtual_Machine.svg;" parent="cKOpjiD4mU9q3P8g4Ua1-17" vertex="1">
          <mxGeometry x="20" y="47" width="69" height="64" as="geometry" />
        </mxCell>
        <mxCell id="cKOpjiD4mU9q3P8g4Ua1-19" value="" style="image;aspect=fixed;html=1;points=[];align=center;fontSize=12;image=img/lib/azure2/compute/Virtual_Machine.svg;" parent="cKOpjiD4mU9q3P8g4Ua1-17" vertex="1">
          <mxGeometry x="20" y="141" width="69" height="64" as="geometry" />
        </mxCell>
        <mxCell id="cKOpjiD4mU9q3P8g4Ua1-20" value="SUB02&lt;br&gt;10.1.0.0/24" style="text;html=1;align=center;verticalAlign=middle;resizable=0;points=[];autosize=1;strokeColor=none;fillColor=none;" parent="cKOpjiD4mU9q3P8g4Ua1-17" vertex="1">
          <mxGeometry x="135" y="205" width="80" height="40" as="geometry" />
        </mxCell>
        <mxCell id="cKOpjiD4mU9q3P8g4Ua1-21" value="VM-AD" style="text;html=1;strokeColor=none;fillColor=#FFFFFF;align=center;verticalAlign=middle;whiteSpace=wrap;rounded=0;" parent="cKOpjiD4mU9q3P8g4Ua1-17" vertex="1">
          <mxGeometry x="114.5" y="60" width="80" height="30" as="geometry" />
        </mxCell>
        <mxCell id="cKOpjiD4mU9q3P8g4Ua1-22" value="VM-HELP" style="text;html=1;strokeColor=none;fillColor=#FFFFFF;align=center;verticalAlign=middle;whiteSpace=wrap;rounded=0;" parent="cKOpjiD4mU9q3P8g4Ua1-17" vertex="1">
          <mxGeometry x="114.5" y="150" width="80" height="30" as="geometry" />
        </mxCell>
        <mxCell id="cKOpjiD4mU9q3P8g4Ua1-23" value="NSG01" style="image;aspect=fixed;html=1;points=[];align=center;fontSize=12;image=img/lib/azure2/networking/Network_Security_Groups.svg;verticalAlign=top;direction=east;" parent="cKOpjiD4mU9q3P8g4Ua1-16" vertex="1">
          <mxGeometry x="150" y="60" width="32.94" height="40" as="geometry" />
        </mxCell>
        <mxCell id="cKOpjiD4mU9q3P8g4Ua1-27" style="edgeStyle=orthogonalEdgeStyle;rounded=0;orthogonalLoop=1;jettySize=auto;html=1;" parent="1" source="cKOpjiD4mU9q3P8g4Ua1-26" target="cKOpjiD4mU9q3P8g4Ua1-1" edge="1">
          <mxGeometry relative="1" as="geometry" />
        </mxCell>
        <mxCell id="cKOpjiD4mU9q3P8g4Ua1-26" value="" style="ellipse;shape=cloud;whiteSpace=wrap;html=1;" parent="1" vertex="1">
          <mxGeometry x="410" width="270" height="190" as="geometry" />
        </mxCell>
        <mxCell id="cKOpjiD4mU9q3P8g4Ua1-8" value="" style="sketch=0;aspect=fixed;pointerEvents=1;shadow=0;dashed=0;html=1;strokeColor=none;labelPosition=center;verticalLabelPosition=bottom;verticalAlign=top;align=center;fillColor=#00188D;shape=mxgraph.mscae.enterprise.android_phone" parent="1" vertex="1">
          <mxGeometry x="570" y="70" width="30" height="50" as="geometry" />
        </mxCell>
        <mxCell id="cKOpjiD4mU9q3P8g4Ua1-7" value="" style="sketch=0;aspect=fixed;pointerEvents=1;shadow=0;dashed=0;html=1;strokeColor=none;labelPosition=center;verticalLabelPosition=bottom;verticalAlign=top;align=center;fillColor=#00188D;shape=mxgraph.mscae.enterprise.workstation_client" parent="1" vertex="1">
          <mxGeometry x="500" y="70" width="50" height="50" as="geometry" />
        </mxCell>
      </root>
    </mxGraphModel>
  </diagram>
  <diagram id="IE_kSgPMm72Gc0L-t1Ub" name="SHOULD-BE">
    <mxGraphModel dx="1434" dy="1996" grid="1" gridSize="10" guides="1" tooltips="1" connect="1" arrows="1" fold="1" page="1" pageScale="1" pageWidth="827" pageHeight="1169" math="0" shadow="0">
      <root>
        <mxCell id="0" />
        <mxCell id="1" parent="0" />
        <mxCell id="2LB-bpgk250uVgHDnm_F-3" value="" style="rounded=0;whiteSpace=wrap;html=1;" vertex="1" parent="1">
          <mxGeometry x="30" y="10" width="770" height="510" as="geometry" />
        </mxCell>
        <mxCell id="2LB-bpgk250uVgHDnm_F-2" value="" style="rounded=0;whiteSpace=wrap;html=1;dashed=1;" vertex="1" parent="1">
          <mxGeometry x="80" y="60" width="380" height="410" as="geometry" />
        </mxCell>
        <mxCell id="2LB-bpgk250uVgHDnm_F-1" value="" style="rounded=1;whiteSpace=wrap;html=1;dashed=1;fillColor=#CCCCCC;" vertex="1" parent="1">
          <mxGeometry x="130" y="100" width="300" height="320" as="geometry" />
        </mxCell>
        <mxCell id="2LB-bpgk250uVgHDnm_F-4" value="" style="image;aspect=fixed;html=1;points=[];align=center;fontSize=12;image=img/lib/azure2/compute/Virtual_Machine.svg;" vertex="1" parent="1">
          <mxGeometry x="160" y="130" width="69" height="64" as="geometry" />
        </mxCell>
        <mxCell id="2LB-bpgk250uVgHDnm_F-5" value="" style="image;aspect=fixed;html=1;points=[];align=center;fontSize=12;image=img/lib/azure2/compute/Virtual_Machine.svg;" vertex="1" parent="1">
          <mxGeometry x="160" y="250" width="69" height="64" as="geometry" />
        </mxCell>
        <mxCell id="2LB-bpgk250uVgHDnm_F-6" value="VM-HELP" style="text;html=1;strokeColor=none;fillColor=none;align=center;verticalAlign=middle;whiteSpace=wrap;rounded=0;" vertex="1" parent="1">
          <mxGeometry x="160" y="314" width="60" height="30" as="geometry" />
        </mxCell>
        <mxCell id="2LB-bpgk250uVgHDnm_F-7" value="VM_DC" style="text;html=1;strokeColor=none;fillColor=none;align=center;verticalAlign=middle;whiteSpace=wrap;rounded=0;" vertex="1" parent="1">
          <mxGeometry x="164.5" y="200" width="60" height="30" as="geometry" />
        </mxCell>
        <mxCell id="2LB-bpgk250uVgHDnm_F-35" style="edgeStyle=orthogonalEdgeStyle;rounded=0;orthogonalLoop=1;jettySize=auto;html=1;startArrow=classic;startFill=1;" edge="1" parent="1" source="2LB-bpgk250uVgHDnm_F-9" target="2LB-bpgk250uVgHDnm_F-11">
          <mxGeometry relative="1" as="geometry" />
        </mxCell>
        <mxCell id="2LB-bpgk250uVgHDnm_F-9" value="" style="image;aspect=fixed;html=1;points=[];align=center;fontSize=12;image=img/lib/azure2/app_services/App_Services.svg;" vertex="1" parent="1">
          <mxGeometry x="330" y="130" width="64" height="64" as="geometry" />
        </mxCell>
        <mxCell id="2LB-bpgk250uVgHDnm_F-10" value="APP-PORTAL" style="text;html=1;strokeColor=none;fillColor=none;align=center;verticalAlign=middle;whiteSpace=wrap;rounded=0;" vertex="1" parent="1">
          <mxGeometry x="272" y="200" width="60" height="20" as="geometry" />
        </mxCell>
        <mxCell id="2LB-bpgk250uVgHDnm_F-11" value="" style="image;aspect=fixed;html=1;points=[];align=center;fontSize=12;image=img/lib/azure2/databases/SQL_Server.svg;" vertex="1" parent="1">
          <mxGeometry x="328" y="252" width="68" height="68" as="geometry" />
        </mxCell>
        <mxCell id="2LB-bpgk250uVgHDnm_F-12" value="DB-ESTUDANTES" style="text;html=1;strokeColor=none;fillColor=none;align=center;verticalAlign=middle;whiteSpace=wrap;rounded=0;" vertex="1" parent="1">
          <mxGeometry x="332" y="330" width="60" height="30" as="geometry" />
        </mxCell>
        <mxCell id="2LB-bpgk250uVgHDnm_F-13" value="SUB-PRD01" style="text;html=1;strokeColor=none;fillColor=none;align=center;verticalAlign=middle;whiteSpace=wrap;rounded=0;" vertex="1" parent="1">
          <mxGeometry x="149" y="370" width="75.5" height="30" as="geometry" />
        </mxCell>
        <mxCell id="2LB-bpgk250uVgHDnm_F-14" value="10.10.0.24" style="text;html=1;strokeColor=none;fillColor=none;align=center;verticalAlign=middle;whiteSpace=wrap;rounded=0;" vertex="1" parent="1">
          <mxGeometry x="156.75" y="390" width="60" height="30" as="geometry" />
        </mxCell>
        <mxCell id="2LB-bpgk250uVgHDnm_F-15" value="VNET-PRD01" style="text;html=1;strokeColor=none;fillColor=none;align=center;verticalAlign=middle;whiteSpace=wrap;rounded=0;" vertex="1" parent="1">
          <mxGeometry x="84.5" y="420" width="85.5" height="30" as="geometry" />
        </mxCell>
        <mxCell id="2LB-bpgk250uVgHDnm_F-16" value="10.10.0.0/16" style="text;html=1;strokeColor=none;fillColor=none;align=center;verticalAlign=middle;whiteSpace=wrap;rounded=0;" vertex="1" parent="1">
          <mxGeometry x="92.25" y="440" width="60" height="30" as="geometry" />
        </mxCell>
        <mxCell id="2LB-bpgk250uVgHDnm_F-17" value="" style="rounded=0;whiteSpace=wrap;html=1;fillStyle=auto;fillColor=#FFFFFF;" vertex="1" parent="1">
          <mxGeometry x="400" y="210" width="120" height="60" as="geometry" />
        </mxCell>
        <mxCell id="2LB-bpgk250uVgHDnm_F-18" value="" style="image;aspect=fixed;html=1;points=[];align=center;fontSize=12;image=img/lib/azure2/management_governance/Application_Insights.svg;" vertex="1" parent="1">
          <mxGeometry x="560" y="80" width="44" height="63" as="geometry" />
        </mxCell>
        <mxCell id="2LB-bpgk250uVgHDnm_F-19" value="APP INSIGHTS" style="text;html=1;strokeColor=none;fillColor=none;align=center;verticalAlign=middle;whiteSpace=wrap;rounded=0;" vertex="1" parent="1">
          <mxGeometry x="552" y="147" width="60" height="30" as="geometry" />
        </mxCell>
        <mxCell id="2LB-bpgk250uVgHDnm_F-29" style="edgeStyle=orthogonalEdgeStyle;rounded=0;orthogonalLoop=1;jettySize=auto;html=1;curved=1;startArrow=classic;startFill=1;" edge="1" parent="1" source="2LB-bpgk250uVgHDnm_F-20" target="2LB-bpgk250uVgHDnm_F-21">
          <mxGeometry relative="1" as="geometry" />
        </mxCell>
        <mxCell id="2LB-bpgk250uVgHDnm_F-20" value="" style="image;aspect=fixed;html=1;points=[];align=center;fontSize=12;image=img/lib/azure2/management_governance/Monitor.svg;" vertex="1" parent="1">
          <mxGeometry x="552" y="320" width="64" height="64" as="geometry" />
        </mxCell>
        <mxCell id="2LB-bpgk250uVgHDnm_F-21" value="" style="image;aspect=fixed;html=1;points=[];align=center;fontSize=12;image=img/lib/azure2/analytics/Log_Analytics_Workspaces.svg;" vertex="1" parent="1">
          <mxGeometry x="670" y="190" width="68" height="68" as="geometry" />
        </mxCell>
        <mxCell id="2LB-bpgk250uVgHDnm_F-22" value="MONITOR" style="text;html=1;strokeColor=none;fillColor=none;align=center;verticalAlign=middle;whiteSpace=wrap;rounded=0;" vertex="1" parent="1">
          <mxGeometry x="556" y="390" width="60" height="30" as="geometry" />
        </mxCell>
        <mxCell id="2LB-bpgk250uVgHDnm_F-23" value="WORKSPACE &amp;nbsp;L" style="text;html=1;strokeColor=none;fillColor=none;align=center;verticalAlign=middle;whiteSpace=wrap;rounded=0;" vertex="1" parent="1">
          <mxGeometry x="730" y="240" width="60" height="30" as="geometry" />
        </mxCell>
        <mxCell id="2LB-bpgk250uVgHDnm_F-24" value="" style="image;aspect=fixed;html=1;points=[];align=center;fontSize=12;image=img/lib/azure2/other/Azure_Backup_Center.svg;" vertex="1" parent="1">
          <mxGeometry x="556" y="440" width="68" height="62" as="geometry" />
        </mxCell>
        <mxCell id="2LB-bpgk250uVgHDnm_F-25" value="BACKUP" style="text;html=1;strokeColor=none;fillColor=none;align=center;verticalAlign=middle;whiteSpace=wrap;rounded=0;" vertex="1" parent="1">
          <mxGeometry x="630" y="472" width="60" height="30" as="geometry" />
        </mxCell>
        <mxCell id="2LB-bpgk250uVgHDnm_F-32" value="" style="image;aspect=fixed;html=1;points=[];align=center;fontSize=12;image=img/lib/azure2/networking/Application_Gateways.svg;" vertex="1" parent="1">
          <mxGeometry x="328" y="10" width="64" height="64" as="geometry" />
        </mxCell>
        <mxCell id="2LB-bpgk250uVgHDnm_F-33" style="edgeStyle=orthogonalEdgeStyle;rounded=0;orthogonalLoop=1;jettySize=auto;html=1;entryX=0.531;entryY=0.969;entryDx=0;entryDy=0;entryPerimeter=0;startArrow=classic;startFill=1;" edge="1" parent="1" source="2LB-bpgk250uVgHDnm_F-9" target="2LB-bpgk250uVgHDnm_F-32">
          <mxGeometry relative="1" as="geometry" />
        </mxCell>
        <mxCell id="2LB-bpgk250uVgHDnm_F-37" style="edgeStyle=orthogonalEdgeStyle;rounded=0;orthogonalLoop=1;jettySize=auto;html=1;entryX=1;entryY=0.397;entryDx=0;entryDy=0;entryPerimeter=0;curved=1;startArrow=classic;startFill=1;" edge="1" parent="1" source="2LB-bpgk250uVgHDnm_F-21" target="2LB-bpgk250uVgHDnm_F-18">
          <mxGeometry relative="1" as="geometry">
            <Array as="points">
              <mxPoint x="710" y="105" />
            </Array>
          </mxGeometry>
        </mxCell>
        <mxCell id="2LB-bpgk250uVgHDnm_F-38" value="" style="points=[[0.13,0.02,0],[0.5,0,0],[0.87,0.02,0],[0.885,0.4,0],[0.985,0.985,0],[0.5,1,0],[0.015,0.985,0],[0.115,0.4,0]];verticalLabelPosition=bottom;sketch=0;html=1;verticalAlign=top;aspect=fixed;align=center;pointerEvents=1;shape=mxgraph.cisco19.secure_endpoints;fillColor=#005073;strokeColor=none;" vertex="1" parent="1">
          <mxGeometry x="440" y="-120" width="50" height="35" as="geometry" />
        </mxCell>
        <mxCell id="2LB-bpgk250uVgHDnm_F-41" value="" style="sketch=0;pointerEvents=1;shadow=0;dashed=0;html=1;strokeColor=none;aspect=fixed;labelPosition=center;verticalLabelPosition=bottom;verticalAlign=top;align=center;outlineConnect=0;shape=mxgraph.vvd.cloud_computing;fillColor=#066A90;" vertex="1" parent="1">
          <mxGeometry x="405.74" y="-180" width="206.26" height="132" as="geometry" />
        </mxCell>
        <mxCell id="2LB-bpgk250uVgHDnm_F-42" value="" style="sketch=0;pointerEvents=1;shadow=0;dashed=0;html=1;strokeColor=none;fillColor=#434445;aspect=fixed;labelPosition=center;verticalLabelPosition=bottom;verticalAlign=top;align=center;outlineConnect=0;shape=mxgraph.vvd.phone;" vertex="1" parent="1">
          <mxGeometry x="526.5" y="-127.5" width="29.5" height="50" as="geometry" />
        </mxCell>
        <mxCell id="2LB-bpgk250uVgHDnm_F-43" style="edgeStyle=orthogonalEdgeStyle;rounded=0;orthogonalLoop=1;jettySize=auto;html=1;entryX=0.453;entryY=0;entryDx=0;entryDy=0;entryPerimeter=0;curved=1;startArrow=none;startFill=0;endArrow=classic;endFill=1;" edge="1" parent="1" source="2LB-bpgk250uVgHDnm_F-41" target="2LB-bpgk250uVgHDnm_F-32">
          <mxGeometry relative="1" as="geometry" />
        </mxCell>
        <mxCell id="O9WzdB3ZIbxlqmeUPdUH-1" value="RG_TFTEC" style="text;html=1;strokeColor=none;fillColor=none;align=center;verticalAlign=middle;whiteSpace=wrap;rounded=0;" vertex="1" parent="1">
          <mxGeometry x="40" y="10" width="60" height="30" as="geometry" />
        </mxCell>
      </root>
    </mxGraphModel>
  </diagram>
</mxfile>
